<svg width="334" height="227" viewBox="0 0 334 227" fill="none" xmlns="http://www.w3.org/2000/svg">
<rect width="333" height="226" transform="translate(0.925293 0.108398)" fill="#BC170B"/>
<path d="M25.6055 56.3084C25.6055 55.7751 32.8722 55.5084 47.4055 55.5084C62.0722 55.5084 69.4055 55.9084 69.4055 56.7084C69.4055 56.9751 68.1389 57.3084 65.6055 57.7084C60.9389 58.5084 57.8722 60.5084 56.4055 63.7084C55.0722 66.7751 54.4055 73.3084 54.4055 83.3084L54.6055 97.9084L56.4055 95.3084C62.2722 87.5751 68.3389 81.7084 74.6055 77.7084C83.0055 72.2417 92.2055 69.5084 102.206 69.5084C113.939 69.5084 123.872 73.1751 132.006 80.5084C136.406 84.5084 138.606 88.1084 138.606 91.3084C138.606 93.3084 137.672 94.7751 135.806 95.7084C134.872 96.3751 133.672 96.7084 132.206 96.7084C128.339 96.7084 126.006 94.1084 125.206 88.9084C124.672 85.7084 124.139 83.8417 123.606 83.3084C122.406 81.8417 120.272 80.4417 117.206 79.1084C114.139 77.7751 111.206 76.9751 108.406 76.7084C108.139 76.7084 107.672 76.7084 107.006 76.7084C106.472 76.5751 106.072 76.5084 105.806 76.5084C98.2055 76.5084 90.6055 78.9084 83.0055 83.7084C75.4055 88.5084 69.8055 93.8417 66.2055 99.7084L64.0055 103.708L77.2055 117.708C107.072 149.308 126.539 168.108 135.606 174.108C142.939 178.775 151.672 182.042 161.806 183.908C166.606 184.842 169.006 185.442 169.006 185.708L167.606 186.508C163.872 187.975 159.206 188.708 153.606 188.708C152.006 188.708 150.006 188.575 147.606 188.308C138.406 186.842 128.672 182.375 118.406 174.908C108.139 167.442 95.6055 155.708 80.8055 139.708C74.1389 132.508 67.3389 125.242 60.4055 117.908L54.4055 111.908V132.508C54.4055 146.375 54.7389 153.975 55.4055 155.308C56.8722 158.242 60.0722 160.308 65.0055 161.508C67.8055 162.175 69.2055 162.708 69.2055 163.108C69.2055 163.642 61.9389 163.908 47.4055 163.908C32.8722 163.908 25.6055 163.642 25.6055 163.108C25.6055 162.575 26.7389 162.175 29.0055 161.908C33.8055 161.242 37.2722 159.308 39.4055 156.108L41.4055 153.108V109.908C41.4055 81.5084 41.0722 66.5084 40.4055 64.9084C38.6722 61.1751 35.4055 58.8417 30.6055 57.9084C27.2722 57.2417 25.6055 56.7084 25.6055 56.3084Z" fill="#FDFDFD"/>
<path d="M261.345 78.7153C259.611 76.0487 258.345 74.7153 257.545 74.7153C257.011 74.7153 256.278 75.182 255.345 76.1153C254.545 77.0487 251.811 80.3153 247.145 85.9153C241.678 92.4487 232.211 103.315 218.745 118.515L195.945 144.315L198.145 146.515C205.611 153.315 215.211 156.715 226.945 156.715C239.745 156.715 250.145 152.449 258.145 143.915C266.278 135.249 270.345 123.982 270.345 110.115C270.345 97.8487 267.345 87.382 261.345 78.7153ZM234.545 62.9153C230.811 62.2487 227.945 61.9153 225.945 61.9153C222.878 61.9153 218.945 62.582 214.145 63.9153C206.945 65.9153 200.811 69.7153 195.745 75.3153C190.678 80.782 187.078 87.582 184.945 95.7153C184.145 99.0487 183.745 103.115 183.745 107.915C183.745 116.449 184.745 123.515 186.745 129.115C188.478 133.649 189.478 135.915 189.745 135.915C190.145 135.915 192.745 133.049 197.545 127.315C212.345 109.982 226.545 94.4487 240.145 80.7153L251.745 68.9153L246.345 66.3153C243.278 64.8487 239.345 63.7153 234.545 62.9153ZM172.545 96.9153C175.078 85.0487 181.078 75.382 190.545 67.9153C200.145 60.4487 211.811 56.7153 225.545 56.7153C229.011 56.7153 232.945 57.0487 237.345 57.7153C242.145 58.382 246.811 59.6487 251.345 61.5153L257.545 63.9153L260.545 61.9153C265.078 58.8487 271.145 57.3153 278.745 57.3153C285.945 57.3153 292.145 58.582 297.345 61.1153C301.078 62.982 303.611 64.6487 304.945 66.1153C306.411 67.4487 307.145 69.0487 307.145 70.9153C307.145 74.6487 305.078 76.5153 300.945 76.5153C299.345 76.5153 298.145 76.182 297.345 75.5153C296.678 74.7153 295.945 73.1153 295.145 70.7153C293.678 66.3153 289.811 63.9153 283.545 63.5153H281.745C275.745 63.5153 270.745 64.782 266.745 67.3153L264.745 68.7153L269.345 73.7153C277.878 83.0487 282.145 95.0487 282.145 109.715C282.145 122.782 278.678 133.782 271.745 142.715C264.945 151.515 255.345 157.382 242.945 160.315C238.011 161.515 232.811 162.115 227.345 162.115C212.945 162.115 201.278 158.915 192.345 152.515L189.745 150.515L186.345 153.115C181.011 157.382 175.145 160.449 168.745 162.315C165.811 163.249 162.011 163.715 157.345 163.715C150.945 163.715 147.745 162.982 147.745 161.515C147.745 160.982 149.478 160.515 152.945 160.115C159.878 159.315 167.545 155.715 175.945 149.315C180.478 145.849 182.745 144.049 182.745 143.915C182.745 143.782 182.011 142.715 180.545 140.715C174.411 132.715 171.345 122.115 171.345 108.915C171.345 104.782 171.745 100.782 172.545 96.9153Z" fill="#FDFDFD"/>
<circle cx="298.812" cy="70.177" r="14.8879" stroke="#E9FF1F" stroke-width="2"/>
<circle cx="131.334" cy="86.0647" r="14.8879" stroke="#E9FF1F" stroke-width="2"/>
<circle cx="155.718" cy="186.715" r="14.8879" stroke="#E9FF1F" stroke-width="2"/>
<line x1="17.7632" y1="54.8521" x2="316.56" y2="54.8521" stroke="#FDFDFD"/>
<line x1="17.7632" y1="99.3613" x2="316.56" y2="99.3614" stroke="#FDFDFD"/>
<line x1="17.7632" y1="163.814" x2="316.56" y2="163.814" stroke="#FDFDFD"/>
<line x1="17.7632" y1="190.729" x2="316.56" y2="190.729" stroke="#FDFDFD"/>
</svg>
